<mxfile host="app.diagrams.net" modified="2022-11-12T03:27:50.524Z" agent="5.0 (Windows NT 10.0; Win64; x64) AppleWebKit/537.36 (KHTML, like Gecko) Chrome/107.0.0.0 Safari/537.36 Edg/107.0.1418.35" etag="cCCvhM4nbxln9MPBJq0D" version="20.5.3" type="github">
  <diagram id="lcDmM25dpl3Givzhbb-s" name="第 1 页">
    <mxGraphModel dx="738" dy="417" grid="1" gridSize="10" guides="1" tooltips="1" connect="1" arrows="0" fold="1" page="1" pageScale="1" pageWidth="827" pageHeight="1169" math="0" shadow="0">
      <root>
        <mxCell id="0" />
        <mxCell id="1" parent="0" />
        <mxCell id="vwS6l9jdm9SswV-FFLDk-1" value="" style="rounded=1;whiteSpace=wrap;html=1;" vertex="1" parent="1">
          <mxGeometry x="110" y="630" width="380" height="60" as="geometry" />
        </mxCell>
        <mxCell id="vwS6l9jdm9SswV-FFLDk-25" style="edgeStyle=orthogonalEdgeStyle;rounded=0;orthogonalLoop=1;jettySize=auto;html=1;exitX=0.5;exitY=1;exitDx=0;exitDy=0;fontSize=11;startArrow=openThin;startFill=0;endArrow=openThin;endFill=0;fillColor=none;" edge="1" parent="1" source="vwS6l9jdm9SswV-FFLDk-2" target="vwS6l9jdm9SswV-FFLDk-23">
          <mxGeometry relative="1" as="geometry" />
        </mxCell>
        <mxCell id="vwS6l9jdm9SswV-FFLDk-2" value="PLC" style="rounded=1;whiteSpace=wrap;html=1;" vertex="1" parent="1">
          <mxGeometry x="110" y="550" width="270.38" height="30" as="geometry" />
        </mxCell>
        <mxCell id="vwS6l9jdm9SswV-FFLDk-18" value="" style="edgeStyle=orthogonalEdgeStyle;rounded=0;orthogonalLoop=1;jettySize=auto;html=1;startArrow=openThin;startFill=0;endArrow=openThin;endFill=0;shape=flexArrow;" edge="1" parent="1" target="vwS6l9jdm9SswV-FFLDk-2">
          <mxGeometry relative="1" as="geometry">
            <mxPoint x="245" y="490" as="sourcePoint" />
          </mxGeometry>
        </mxCell>
        <mxCell id="vwS6l9jdm9SswV-FFLDk-3" value="" style="rounded=1;whiteSpace=wrap;html=1;" vertex="1" parent="1">
          <mxGeometry x="110" y="440" width="380" height="50" as="geometry" />
        </mxCell>
        <mxCell id="vwS6l9jdm9SswV-FFLDk-4" value="电机驱动器" style="text;html=1;strokeColor=default;fillColor=none;align=center;verticalAlign=middle;whiteSpace=wrap;rounded=0;" vertex="1" parent="1">
          <mxGeometry x="121.52" y="645" width="78.48" height="30" as="geometry" />
        </mxCell>
        <mxCell id="vwS6l9jdm9SswV-FFLDk-12" style="edgeStyle=orthogonalEdgeStyle;rounded=0;orthogonalLoop=1;jettySize=auto;html=1;exitX=0.5;exitY=1;exitDx=0;exitDy=0;entryX=0.5;entryY=0;entryDx=0;entryDy=0;startArrow=openThin;startFill=0;endArrow=openThin;endFill=0;" edge="1" parent="1" source="vwS6l9jdm9SswV-FFLDk-2" target="vwS6l9jdm9SswV-FFLDk-4">
          <mxGeometry relative="1" as="geometry" />
        </mxCell>
        <mxCell id="vwS6l9jdm9SswV-FFLDk-6" value="各类IO设备" style="text;html=1;strokeColor=default;fillColor=none;align=center;verticalAlign=middle;whiteSpace=wrap;rounded=0;" vertex="1" parent="1">
          <mxGeometry x="310" y="645" width="70.38" height="30" as="geometry" />
        </mxCell>
        <mxCell id="vwS6l9jdm9SswV-FFLDk-13" style="edgeStyle=orthogonalEdgeStyle;rounded=0;orthogonalLoop=1;jettySize=auto;html=1;exitX=0.5;exitY=1;exitDx=0;exitDy=0;entryX=0.5;entryY=0;entryDx=0;entryDy=0;startArrow=openThin;startFill=0;endArrow=openThin;endFill=0;" edge="1" parent="1" source="vwS6l9jdm9SswV-FFLDk-2" target="vwS6l9jdm9SswV-FFLDk-6">
          <mxGeometry relative="1" as="geometry" />
        </mxCell>
        <mxCell id="vwS6l9jdm9SswV-FFLDk-8" value="FBG" style="text;html=1;strokeColor=default;fillColor=none;align=center;verticalAlign=middle;whiteSpace=wrap;rounded=0;" vertex="1" parent="1">
          <mxGeometry x="410" y="645" width="66.06" height="30" as="geometry" />
        </mxCell>
        <mxCell id="vwS6l9jdm9SswV-FFLDk-15" value="Ethercat" style="text;html=1;strokeColor=none;fillColor=none;align=center;verticalAlign=middle;whiteSpace=wrap;rounded=0;" vertex="1" parent="1">
          <mxGeometry x="197.69230769230768" y="585" width="43.84615384615385" height="20" as="geometry" />
        </mxCell>
        <mxCell id="vwS6l9jdm9SswV-FFLDk-19" value="ADS" style="text;html=1;strokeColor=none;fillColor=none;align=center;verticalAlign=middle;whiteSpace=wrap;rounded=0;" vertex="1" parent="1">
          <mxGeometry x="190" y="500" width="38.46" height="30" as="geometry" />
        </mxCell>
        <mxCell id="vwS6l9jdm9SswV-FFLDk-29" style="edgeStyle=orthogonalEdgeStyle;rounded=0;orthogonalLoop=1;jettySize=auto;html=1;exitX=0.5;exitY=1;exitDx=0;exitDy=0;entryX=0.5;entryY=0;entryDx=0;entryDy=0;fontSize=11;startArrow=openThin;startFill=0;endArrow=openThin;endFill=0;fillColor=none;shape=flexArrow;" edge="1" parent="1" source="vwS6l9jdm9SswV-FFLDk-21" target="vwS6l9jdm9SswV-FFLDk-8">
          <mxGeometry relative="1" as="geometry" />
        </mxCell>
        <mxCell id="vwS6l9jdm9SswV-FFLDk-21" value="FBG处理器" style="rounded=1;whiteSpace=wrap;html=1;strokeColor=default;" vertex="1" parent="1">
          <mxGeometry x="400.03" y="550" width="86" height="30" as="geometry" />
        </mxCell>
        <mxCell id="vwS6l9jdm9SswV-FFLDk-32" style="edgeStyle=orthogonalEdgeStyle;shape=flexArrow;rounded=0;orthogonalLoop=1;jettySize=auto;html=1;exitX=0.5;exitY=1;exitDx=0;exitDy=0;entryX=0.5;entryY=0;entryDx=0;entryDy=0;fontSize=11;startArrow=openThin;startFill=0;endArrow=openThin;endFill=0;fillColor=none;" edge="1" parent="1" source="vwS6l9jdm9SswV-FFLDk-22" target="vwS6l9jdm9SswV-FFLDk-21">
          <mxGeometry relative="1" as="geometry" />
        </mxCell>
        <mxCell id="vwS6l9jdm9SswV-FFLDk-22" value="&lt;font style=&quot;font-size: 11px;&quot;&gt;FBG处理应用&lt;/font&gt;" style="rounded=1;whiteSpace=wrap;html=1;strokeColor=default;" vertex="1" parent="1">
          <mxGeometry x="403.03" y="450" width="80" height="30" as="geometry" />
        </mxCell>
        <mxCell id="vwS6l9jdm9SswV-FFLDk-23" value="手柄" style="text;html=1;strokeColor=default;fillColor=none;align=center;verticalAlign=middle;whiteSpace=wrap;rounded=0;" vertex="1" parent="1">
          <mxGeometry x="220" y="645" width="70" height="30" as="geometry" />
        </mxCell>
        <mxCell id="vwS6l9jdm9SswV-FFLDk-31" value="光信号" style="text;html=1;align=center;verticalAlign=middle;resizable=0;points=[];autosize=1;strokeColor=none;fillColor=none;fontSize=11;" vertex="1" parent="1">
          <mxGeometry x="440" y="600" width="60" height="30" as="geometry" />
        </mxCell>
        <mxCell id="vwS6l9jdm9SswV-FFLDk-33" value="？" style="text;html=1;align=center;verticalAlign=middle;resizable=0;points=[];autosize=1;strokeColor=none;fillColor=none;fontSize=11;" vertex="1" parent="1">
          <mxGeometry x="440" y="500" width="40" height="30" as="geometry" />
        </mxCell>
        <mxCell id="vwS6l9jdm9SswV-FFLDk-36" style="edgeStyle=orthogonalEdgeStyle;shape=flexArrow;rounded=0;orthogonalLoop=1;jettySize=auto;html=1;exitX=1;exitY=0.5;exitDx=0;exitDy=0;fontSize=11;startArrow=openThin;startFill=0;endArrow=openThin;endFill=0;fillColor=none;" edge="1" parent="1" source="vwS6l9jdm9SswV-FFLDk-34" target="vwS6l9jdm9SswV-FFLDk-22">
          <mxGeometry relative="1" as="geometry" />
        </mxCell>
        <mxCell id="vwS6l9jdm9SswV-FFLDk-37" value="&lt;font style=&quot;font-size: 11px;&quot;&gt;TCP/IP&lt;/font&gt;" style="edgeLabel;html=1;align=center;verticalAlign=middle;resizable=0;points=[];fontSize=11;labelBackgroundColor=none;" vertex="1" connectable="0" parent="vwS6l9jdm9SswV-FFLDk-36">
          <mxGeometry x="0.1543" y="2" relative="1" as="geometry">
            <mxPoint x="-14" y="2" as="offset" />
          </mxGeometry>
        </mxCell>
        <mxCell id="vwS6l9jdm9SswV-FFLDk-34" value="&lt;span style=&quot;font-size: 11px;&quot;&gt;导航、定位应用&lt;/span&gt;" style="rounded=1;whiteSpace=wrap;html=1;strokeColor=default;" vertex="1" parent="1">
          <mxGeometry x="140" y="450" width="100" height="30" as="geometry" />
        </mxCell>
        <mxCell id="vwS6l9jdm9SswV-FFLDk-39" value="路由器？" style="rounded=1;whiteSpace=wrap;html=1;labelBackgroundColor=none;strokeColor=default;fontSize=11;" vertex="1" parent="1">
          <mxGeometry x="266" y="505" width="80" height="30" as="geometry" />
        </mxCell>
        <mxCell id="vwS6l9jdm9SswV-FFLDk-40" value="物理层" style="text;html=1;strokeColor=none;fillColor=none;align=center;verticalAlign=middle;whiteSpace=wrap;rounded=0;labelBackgroundColor=none;fontSize=11;" vertex="1" parent="1">
          <mxGeometry x="30" y="645" width="60" height="30" as="geometry" />
        </mxCell>
        <mxCell id="vwS6l9jdm9SswV-FFLDk-41" value="驱控层" style="text;html=1;strokeColor=none;fillColor=none;align=center;verticalAlign=middle;whiteSpace=wrap;rounded=0;labelBackgroundColor=none;fontSize=11;" vertex="1" parent="1">
          <mxGeometry x="30" y="550" width="60" height="30" as="geometry" />
        </mxCell>
        <mxCell id="vwS6l9jdm9SswV-FFLDk-42" value="应用层" style="text;html=1;strokeColor=none;fillColor=none;align=center;verticalAlign=middle;whiteSpace=wrap;rounded=0;labelBackgroundColor=none;fontSize=11;" vertex="1" parent="1">
          <mxGeometry x="30" y="450" width="60" height="30" as="geometry" />
        </mxCell>
      </root>
    </mxGraphModel>
  </diagram>
</mxfile>
